<svg xmlns="http://www.w3.org/2000/svg" xmlns:xlink="http://www.w3.org/1999/xlink" width="500" zoomAndPan="magnify" viewBox="0 0 375 374.999991" height="500" preserveAspectRatio="xMidYMid meet" version="1.0"><defs><clipPath id="c9381e4d10"><path d="M 75 0 L 300 0 C 341.421875 0 375 33.578125 375 75 L 375 300 C 375 341.421875 341.421875 375 300 375 L 75 375 C 33.578125 375 0 341.421875 0 300 L 0 75 C 0 33.578125 33.578125 0 75 0 Z M 75 0 " clip-rule="nonzero"/></clipPath><linearGradient x1="0" gradientTransform="matrix(1.464844, 0, 0, 1.464844, 0.0000045, 0)" y1="128" x2="255.999988" gradientUnits="userSpaceOnUse" y2="128" id="3eec4e7eb5"><stop stop-opacity="1" stop-color="rgb(31.799316%, 43.899536%, 100%)" offset="0"/><stop stop-opacity="1" stop-color="rgb(32.064819%, 43.884277%, 99.908447%)" offset="0.00390625"/><stop stop-opacity="1" stop-color="rgb(32.331848%, 43.869019%, 99.81842%)" offset="0.0078125"/><stop stop-opacity="1" stop-color="rgb(32.597351%, 43.85376%, 99.728394%)" offset="0.0117188"/><stop stop-opacity="1" stop-color="rgb(32.86438%, 43.838501%, 99.638367%)" offset="0.015625"/><stop stop-opacity="1" stop-color="rgb(33.129883%, 43.823242%, 99.54834%)" offset="0.0195313"/><stop stop-opacity="1" stop-color="rgb(33.396912%, 43.807983%, 99.458313%)" offset="0.0234375"/><stop stop-opacity="1" stop-color="rgb(33.66394%, 43.792725%, 99.36676%)" offset="0.0273438"/><stop stop-opacity="1" stop-color="rgb(33.930969%, 43.777466%, 99.276733%)" offset="0.03125"/><stop stop-opacity="1" stop-color="rgb(34.196472%, 43.762207%, 99.186707%)" offset="0.0351562"/><stop stop-opacity="1" stop-color="rgb(34.463501%, 43.746948%, 99.09668%)" offset="0.0390625"/><stop stop-opacity="1" stop-color="rgb(34.729004%, 43.731689%, 99.006653%)" offset="0.0429688"/><stop stop-opacity="1" stop-color="rgb(34.996033%, 43.716431%, 98.916626%)" offset="0.046875"/><stop stop-opacity="1" stop-color="rgb(35.261536%, 43.701172%, 98.826599%)" offset="0.0507812"/><stop stop-opacity="1" stop-color="rgb(35.528564%, 43.685913%, 98.736572%)" offset="0.0546875"/><stop stop-opacity="1" stop-color="rgb(35.794067%, 43.670654%, 98.64502%)" offset="0.0585938"/><stop stop-opacity="1" stop-color="rgb(36.061096%, 43.655396%, 98.554993%)" offset="0.0625"/><stop stop-opacity="1" stop-color="rgb(36.328125%, 43.640137%, 98.464966%)" offset="0.0664062"/><stop stop-opacity="1" stop-color="rgb(36.595154%, 43.624878%, 98.374939%)" offset="0.0703125"/><stop stop-opacity="1" stop-color="rgb(36.860657%, 43.609619%, 98.284912%)" offset="0.0742188"/><stop stop-opacity="1" stop-color="rgb(37.127686%, 43.59436%, 98.194885%)" offset="0.078125"/><stop stop-opacity="1" stop-color="rgb(37.393188%, 43.579102%, 98.104858%)" offset="0.0820312"/><stop stop-opacity="1" stop-color="rgb(37.660217%, 43.563843%, 98.014832%)" offset="0.0859375"/><stop stop-opacity="1" stop-color="rgb(37.92572%, 43.548584%, 97.923279%)" offset="0.0898438"/><stop stop-opacity="1" stop-color="rgb(38.192749%, 43.533325%, 97.833252%)" offset="0.09375"/><stop stop-opacity="1" stop-color="rgb(38.458252%, 43.518066%, 97.743225%)" offset="0.0976562"/><stop stop-opacity="1" stop-color="rgb(38.725281%, 43.502808%, 97.653198%)" offset="0.101562"/><stop stop-opacity="1" stop-color="rgb(38.99231%, 43.487549%, 97.563171%)" offset="0.105469"/><stop stop-opacity="1" stop-color="rgb(39.259338%, 43.47229%, 97.473145%)" offset="0.109375"/><stop stop-opacity="1" stop-color="rgb(39.524841%, 43.457031%, 97.381592%)" offset="0.113281"/><stop stop-opacity="1" stop-color="rgb(39.79187%, 43.441772%, 97.291565%)" offset="0.117188"/><stop stop-opacity="1" stop-color="rgb(40.057373%, 43.426514%, 97.201538%)" offset="0.121094"/><stop stop-opacity="1" stop-color="rgb(40.324402%, 43.411255%, 97.111511%)" offset="0.125"/><stop stop-opacity="1" stop-color="rgb(40.589905%, 43.395996%, 97.021484%)" offset="0.128906"/><stop stop-opacity="1" stop-color="rgb(40.856934%, 43.380737%, 96.931458%)" offset="0.132812"/><stop stop-opacity="1" stop-color="rgb(41.122437%, 43.365479%, 96.841431%)" offset="0.136719"/><stop stop-opacity="1" stop-color="rgb(41.389465%, 43.35022%, 96.751404%)" offset="0.140625"/><stop stop-opacity="1" stop-color="rgb(41.654968%, 43.334961%, 96.659851%)" offset="0.144531"/><stop stop-opacity="1" stop-color="rgb(41.921997%, 43.319702%, 96.569824%)" offset="0.148438"/><stop stop-opacity="1" stop-color="rgb(42.189026%, 43.304443%, 96.479797%)" offset="0.152344"/><stop stop-opacity="1" stop-color="rgb(42.456055%, 43.289185%, 96.389771%)" offset="0.15625"/><stop stop-opacity="1" stop-color="rgb(42.721558%, 43.273926%, 96.299744%)" offset="0.160156"/><stop stop-opacity="1" stop-color="rgb(42.988586%, 43.258667%, 96.209717%)" offset="0.164062"/><stop stop-opacity="1" stop-color="rgb(43.254089%, 43.243408%, 96.11969%)" offset="0.167969"/><stop stop-opacity="1" stop-color="rgb(43.521118%, 43.229675%, 96.029663%)" offset="0.171875"/><stop stop-opacity="1" stop-color="rgb(43.786621%, 43.214417%, 95.93811%)" offset="0.175781"/><stop stop-opacity="1" stop-color="rgb(44.05365%, 43.199158%, 95.848083%)" offset="0.179688"/><stop stop-opacity="1" stop-color="rgb(44.319153%, 43.183899%, 95.758057%)" offset="0.183594"/><stop stop-opacity="1" stop-color="rgb(44.586182%, 43.16864%, 95.66803%)" offset="0.1875"/><stop stop-opacity="1" stop-color="rgb(44.85321%, 43.153381%, 95.578003%)" offset="0.191406"/><stop stop-opacity="1" stop-color="rgb(45.120239%, 43.138123%, 95.487976%)" offset="0.195312"/><stop stop-opacity="1" stop-color="rgb(45.385742%, 43.122864%, 95.396423%)" offset="0.199219"/><stop stop-opacity="1" stop-color="rgb(45.652771%, 43.107605%, 95.306396%)" offset="0.203125"/><stop stop-opacity="1" stop-color="rgb(45.918274%, 43.092346%, 95.21637%)" offset="0.207031"/><stop stop-opacity="1" stop-color="rgb(46.185303%, 43.077087%, 95.126343%)" offset="0.210938"/><stop stop-opacity="1" stop-color="rgb(46.450806%, 43.061829%, 95.036316%)" offset="0.214844"/><stop stop-opacity="1" stop-color="rgb(46.717834%, 43.04657%, 94.946289%)" offset="0.21875"/><stop stop-opacity="1" stop-color="rgb(46.983337%, 43.031311%, 94.856262%)" offset="0.222656"/><stop stop-opacity="1" stop-color="rgb(47.250366%, 43.016052%, 94.766235%)" offset="0.226562"/><stop stop-opacity="1" stop-color="rgb(47.515869%, 43.000793%, 94.674683%)" offset="0.230469"/><stop stop-opacity="1" stop-color="rgb(47.782898%, 42.985535%, 94.584656%)" offset="0.234375"/><stop stop-opacity="1" stop-color="rgb(48.049927%, 42.970276%, 94.494629%)" offset="0.238281"/><stop stop-opacity="1" stop-color="rgb(48.316956%, 42.955017%, 94.404602%)" offset="0.242188"/><stop stop-opacity="1" stop-color="rgb(48.582458%, 42.939758%, 94.314575%)" offset="0.246094"/><stop stop-opacity="1" stop-color="rgb(48.849487%, 42.9245%, 94.224548%)" offset="0.25"/><stop stop-opacity="1" stop-color="rgb(49.11499%, 42.909241%, 94.134521%)" offset="0.253906"/><stop stop-opacity="1" stop-color="rgb(49.382019%, 42.893982%, 94.044495%)" offset="0.257812"/><stop stop-opacity="1" stop-color="rgb(49.647522%, 42.878723%, 93.952942%)" offset="0.261719"/><stop stop-opacity="1" stop-color="rgb(49.914551%, 42.863464%, 93.862915%)" offset="0.265625"/><stop stop-opacity="1" stop-color="rgb(50.180054%, 42.848206%, 93.772888%)" offset="0.269531"/><stop stop-opacity="1" stop-color="rgb(50.447083%, 42.832947%, 93.682861%)" offset="0.273438"/><stop stop-opacity="1" stop-color="rgb(50.714111%, 42.817688%, 93.592834%)" offset="0.277344"/><stop stop-opacity="1" stop-color="rgb(50.98114%, 42.802429%, 93.502808%)" offset="0.28125"/><stop stop-opacity="1" stop-color="rgb(51.246643%, 42.78717%, 93.411255%)" offset="0.285156"/><stop stop-opacity="1" stop-color="rgb(51.513672%, 42.771912%, 93.321228%)" offset="0.289063"/><stop stop-opacity="1" stop-color="rgb(51.779175%, 42.756653%, 93.231201%)" offset="0.292969"/><stop stop-opacity="1" stop-color="rgb(52.046204%, 42.741394%, 93.141174%)" offset="0.296875"/><stop stop-opacity="1" stop-color="rgb(52.311707%, 42.726135%, 93.051147%)" offset="0.300781"/><stop stop-opacity="1" stop-color="rgb(52.578735%, 42.710876%, 92.961121%)" offset="0.304688"/><stop stop-opacity="1" stop-color="rgb(52.844238%, 42.695618%, 92.871094%)" offset="0.308594"/><stop stop-opacity="1" stop-color="rgb(53.111267%, 42.680359%, 92.781067%)" offset="0.3125"/><stop stop-opacity="1" stop-color="rgb(53.37677%, 42.6651%, 92.689514%)" offset="0.316406"/><stop stop-opacity="1" stop-color="rgb(53.643799%, 42.649841%, 92.599487%)" offset="0.320312"/><stop stop-opacity="1" stop-color="rgb(53.910828%, 42.634583%, 92.50946%)" offset="0.324219"/><stop stop-opacity="1" stop-color="rgb(54.177856%, 42.619324%, 92.419434%)" offset="0.328125"/><stop stop-opacity="1" stop-color="rgb(54.443359%, 42.604065%, 92.329407%)" offset="0.332031"/><stop stop-opacity="1" stop-color="rgb(54.710388%, 42.588806%, 92.23938%)" offset="0.335938"/><stop stop-opacity="1" stop-color="rgb(54.975891%, 42.573547%, 92.149353%)" offset="0.339844"/><stop stop-opacity="1" stop-color="rgb(55.24292%, 42.558289%, 92.059326%)" offset="0.34375"/><stop stop-opacity="1" stop-color="rgb(55.508423%, 42.54303%, 91.967773%)" offset="0.347656"/><stop stop-opacity="1" stop-color="rgb(55.775452%, 42.527771%, 91.877747%)" offset="0.351562"/><stop stop-opacity="1" stop-color="rgb(56.040955%, 42.512512%, 91.78772%)" offset="0.355469"/><stop stop-opacity="1" stop-color="rgb(56.307983%, 42.497253%, 91.697693%)" offset="0.359375"/><stop stop-opacity="1" stop-color="rgb(56.575012%, 42.481995%, 91.607666%)" offset="0.363281"/><stop stop-opacity="1" stop-color="rgb(56.842041%, 42.466736%, 91.517639%)" offset="0.367188"/><stop stop-opacity="1" stop-color="rgb(57.107544%, 42.451477%, 91.426086%)" offset="0.371094"/><stop stop-opacity="1" stop-color="rgb(57.374573%, 42.436218%, 91.33606%)" offset="0.375"/><stop stop-opacity="1" stop-color="rgb(57.640076%, 42.420959%, 91.246033%)" offset="0.378906"/><stop stop-opacity="1" stop-color="rgb(57.907104%, 42.405701%, 91.156006%)" offset="0.382812"/><stop stop-opacity="1" stop-color="rgb(58.172607%, 42.390442%, 91.065979%)" offset="0.386719"/><stop stop-opacity="1" stop-color="rgb(58.439636%, 42.375183%, 90.975952%)" offset="0.390625"/><stop stop-opacity="1" stop-color="rgb(58.705139%, 42.359924%, 90.885925%)" offset="0.394531"/><stop stop-opacity="1" stop-color="rgb(58.972168%, 42.344666%, 90.795898%)" offset="0.398438"/><stop stop-opacity="1" stop-color="rgb(59.239197%, 42.329407%, 90.704346%)" offset="0.402344"/><stop stop-opacity="1" stop-color="rgb(59.506226%, 42.314148%, 90.614319%)" offset="0.40625"/><stop stop-opacity="1" stop-color="rgb(59.771729%, 42.298889%, 90.524292%)" offset="0.410156"/><stop stop-opacity="1" stop-color="rgb(60.038757%, 42.285156%, 90.434265%)" offset="0.414062"/><stop stop-opacity="1" stop-color="rgb(60.30426%, 42.269897%, 90.344238%)" offset="0.417969"/><stop stop-opacity="1" stop-color="rgb(60.571289%, 42.254639%, 90.254211%)" offset="0.421875"/><stop stop-opacity="1" stop-color="rgb(60.836792%, 42.23938%, 90.164185%)" offset="0.425781"/><stop stop-opacity="1" stop-color="rgb(61.103821%, 42.224121%, 90.074158%)" offset="0.429688"/><stop stop-opacity="1" stop-color="rgb(61.369324%, 42.208862%, 89.982605%)" offset="0.433594"/><stop stop-opacity="1" stop-color="rgb(61.636353%, 42.193604%, 89.892578%)" offset="0.4375"/><stop stop-opacity="1" stop-color="rgb(61.901855%, 42.178345%, 89.802551%)" offset="0.441406"/><stop stop-opacity="1" stop-color="rgb(62.168884%, 42.163086%, 89.712524%)" offset="0.445312"/><stop stop-opacity="1" stop-color="rgb(62.435913%, 42.147827%, 89.622498%)" offset="0.449219"/><stop stop-opacity="1" stop-color="rgb(62.702942%, 42.132568%, 89.532471%)" offset="0.453125"/><stop stop-opacity="1" stop-color="rgb(62.968445%, 42.11731%, 89.440918%)" offset="0.457031"/><stop stop-opacity="1" stop-color="rgb(63.235474%, 42.102051%, 89.350891%)" offset="0.460938"/><stop stop-opacity="1" stop-color="rgb(63.500977%, 42.086792%, 89.260864%)" offset="0.464844"/><stop stop-opacity="1" stop-color="rgb(63.768005%, 42.071533%, 89.170837%)" offset="0.46875"/><stop stop-opacity="1" stop-color="rgb(64.033508%, 42.056274%, 89.080811%)" offset="0.472656"/><stop stop-opacity="1" stop-color="rgb(64.300537%, 42.041016%, 88.990784%)" offset="0.476562"/><stop stop-opacity="1" stop-color="rgb(64.56604%, 42.025757%, 88.900757%)" offset="0.480469"/><stop stop-opacity="1" stop-color="rgb(64.833069%, 42.010498%, 88.81073%)" offset="0.484375"/><stop stop-opacity="1" stop-color="rgb(65.100098%, 41.995239%, 88.719177%)" offset="0.488281"/><stop stop-opacity="1" stop-color="rgb(65.367126%, 41.97998%, 88.62915%)" offset="0.492188"/><stop stop-opacity="1" stop-color="rgb(65.632629%, 41.964722%, 88.539124%)" offset="0.496094"/><stop stop-opacity="1" stop-color="rgb(65.899658%, 41.949463%, 88.449097%)" offset="0.5"/><stop stop-opacity="1" stop-color="rgb(66.165161%, 41.934204%, 88.35907%)" offset="0.503906"/><stop stop-opacity="1" stop-color="rgb(66.43219%, 41.918945%, 88.269043%)" offset="0.507812"/><stop stop-opacity="1" stop-color="rgb(66.697693%, 41.903687%, 88.179016%)" offset="0.511719"/><stop stop-opacity="1" stop-color="rgb(66.964722%, 41.888428%, 88.088989%)" offset="0.515625"/><stop stop-opacity="1" stop-color="rgb(67.230225%, 41.873169%, 87.997437%)" offset="0.519531"/><stop stop-opacity="1" stop-color="rgb(67.497253%, 41.85791%, 87.90741%)" offset="0.523438"/><stop stop-opacity="1" stop-color="rgb(67.762756%, 41.842651%, 87.817383%)" offset="0.527344"/><stop stop-opacity="1" stop-color="rgb(68.029785%, 41.827393%, 87.727356%)" offset="0.53125"/><stop stop-opacity="1" stop-color="rgb(68.296814%, 41.812134%, 87.637329%)" offset="0.535156"/><stop stop-opacity="1" stop-color="rgb(68.563843%, 41.796875%, 87.547302%)" offset="0.539062"/><stop stop-opacity="1" stop-color="rgb(68.829346%, 41.781616%, 87.45575%)" offset="0.542969"/><stop stop-opacity="1" stop-color="rgb(69.096375%, 41.766357%, 87.365723%)" offset="0.546875"/><stop stop-opacity="1" stop-color="rgb(69.361877%, 41.751099%, 87.275696%)" offset="0.550781"/><stop stop-opacity="1" stop-color="rgb(69.628906%, 41.73584%, 87.185669%)" offset="0.554688"/><stop stop-opacity="1" stop-color="rgb(69.894409%, 41.720581%, 87.095642%)" offset="0.558594"/><stop stop-opacity="1" stop-color="rgb(70.161438%, 41.705322%, 87.005615%)" offset="0.5625"/><stop stop-opacity="1" stop-color="rgb(70.426941%, 41.690063%, 86.915588%)" offset="0.566406"/><stop stop-opacity="1" stop-color="rgb(70.69397%, 41.674805%, 86.825562%)" offset="0.570312"/><stop stop-opacity="1" stop-color="rgb(70.960999%, 41.659546%, 86.734009%)" offset="0.574219"/><stop stop-opacity="1" stop-color="rgb(71.228027%, 41.644287%, 86.643982%)" offset="0.578125"/><stop stop-opacity="1" stop-color="rgb(71.49353%, 41.629028%, 86.553955%)" offset="0.582031"/><stop stop-opacity="1" stop-color="rgb(71.760559%, 41.61377%, 86.463928%)" offset="0.585938"/><stop stop-opacity="1" stop-color="rgb(72.026062%, 41.598511%, 86.373901%)" offset="0.589844"/><stop stop-opacity="1" stop-color="rgb(72.293091%, 41.583252%, 86.283875%)" offset="0.59375"/><stop stop-opacity="1" stop-color="rgb(72.558594%, 41.567993%, 86.193848%)" offset="0.597656"/><stop stop-opacity="1" stop-color="rgb(72.825623%, 41.552734%, 86.103821%)" offset="0.601563"/><stop stop-opacity="1" stop-color="rgb(73.091125%, 41.537476%, 86.012268%)" offset="0.605469"/><stop stop-opacity="1" stop-color="rgb(73.358154%, 41.522217%, 85.922241%)" offset="0.609375"/><stop stop-opacity="1" stop-color="rgb(73.623657%, 41.506958%, 85.832214%)" offset="0.613281"/><stop stop-opacity="1" stop-color="rgb(73.890686%, 41.491699%, 85.742188%)" offset="0.617188"/><stop stop-opacity="1" stop-color="rgb(74.157715%, 41.47644%, 85.652161%)" offset="0.621094"/><stop stop-opacity="1" stop-color="rgb(74.424744%, 41.461182%, 85.562134%)" offset="0.625"/><stop stop-opacity="1" stop-color="rgb(74.690247%, 41.445923%, 85.470581%)" offset="0.628906"/><stop stop-opacity="1" stop-color="rgb(74.957275%, 41.430664%, 85.380554%)" offset="0.632812"/><stop stop-opacity="1" stop-color="rgb(75.222778%, 41.415405%, 85.290527%)" offset="0.636719"/><stop stop-opacity="1" stop-color="rgb(75.489807%, 41.400146%, 85.2005%)" offset="0.640625"/><stop stop-opacity="1" stop-color="rgb(75.75531%, 41.384888%, 85.110474%)" offset="0.644531"/><stop stop-opacity="1" stop-color="rgb(76.022339%, 41.369629%, 85.020447%)" offset="0.648438"/><stop stop-opacity="1" stop-color="rgb(76.287842%, 41.35437%, 84.93042%)" offset="0.652344"/><stop stop-opacity="1" stop-color="rgb(76.554871%, 41.339111%, 84.840393%)" offset="0.65625"/><stop stop-opacity="1" stop-color="rgb(76.821899%, 41.323853%, 84.74884%)" offset="0.660156"/><stop stop-opacity="1" stop-color="rgb(77.088928%, 41.31012%, 84.658813%)" offset="0.664063"/><stop stop-opacity="1" stop-color="rgb(77.354431%, 41.294861%, 84.568787%)" offset="0.667969"/><stop stop-opacity="1" stop-color="rgb(77.62146%, 41.279602%, 84.47876%)" offset="0.671875"/><stop stop-opacity="1" stop-color="rgb(77.886963%, 41.264343%, 84.388733%)" offset="0.675781"/><stop stop-opacity="1" stop-color="rgb(78.153992%, 41.249084%, 84.298706%)" offset="0.679688"/><stop stop-opacity="1" stop-color="rgb(78.419495%, 41.233826%, 84.208679%)" offset="0.683594"/><stop stop-opacity="1" stop-color="rgb(78.686523%, 41.218567%, 84.118652%)" offset="0.6875"/><stop stop-opacity="1" stop-color="rgb(78.952026%, 41.203308%, 84.0271%)" offset="0.691406"/><stop stop-opacity="1" stop-color="rgb(79.219055%, 41.188049%, 83.937073%)" offset="0.695313"/><stop stop-opacity="1" stop-color="rgb(79.486084%, 41.172791%, 83.847046%)" offset="0.699219"/><stop stop-opacity="1" stop-color="rgb(79.753113%, 41.157532%, 83.757019%)" offset="0.703125"/><stop stop-opacity="1" stop-color="rgb(80.018616%, 41.142273%, 83.666992%)" offset="0.707031"/><stop stop-opacity="1" stop-color="rgb(80.285645%, 41.127014%, 83.576965%)" offset="0.710938"/><stop stop-opacity="1" stop-color="rgb(80.551147%, 41.111755%, 83.485413%)" offset="0.714844"/><stop stop-opacity="1" stop-color="rgb(80.818176%, 41.096497%, 83.395386%)" offset="0.71875"/><stop stop-opacity="1" stop-color="rgb(81.083679%, 41.081238%, 83.305359%)" offset="0.722656"/><stop stop-opacity="1" stop-color="rgb(81.350708%, 41.065979%, 83.215332%)" offset="0.726562"/><stop stop-opacity="1" stop-color="rgb(81.616211%, 41.05072%, 83.125305%)" offset="0.730469"/><stop stop-opacity="1" stop-color="rgb(81.88324%, 41.035461%, 83.035278%)" offset="0.734375"/><stop stop-opacity="1" stop-color="rgb(82.148743%, 41.020203%, 82.945251%)" offset="0.738281"/><stop stop-opacity="1" stop-color="rgb(82.415771%, 41.004944%, 82.855225%)" offset="0.742188"/><stop stop-opacity="1" stop-color="rgb(82.6828%, 40.989685%, 82.763672%)" offset="0.746094"/><stop stop-opacity="1" stop-color="rgb(82.949829%, 40.974426%, 82.673645%)" offset="0.75"/><stop stop-opacity="1" stop-color="rgb(83.215332%, 40.959167%, 82.583618%)" offset="0.753906"/><stop stop-opacity="1" stop-color="rgb(83.482361%, 40.943909%, 82.493591%)" offset="0.757812"/><stop stop-opacity="1" stop-color="rgb(83.747864%, 40.92865%, 82.403564%)" offset="0.761719"/><stop stop-opacity="1" stop-color="rgb(84.014893%, 40.913391%, 82.313538%)" offset="0.765625"/><stop stop-opacity="1" stop-color="rgb(84.280396%, 40.898132%, 82.223511%)" offset="0.769531"/><stop stop-opacity="1" stop-color="rgb(84.547424%, 40.882874%, 82.133484%)" offset="0.773438"/><stop stop-opacity="1" stop-color="rgb(84.812927%, 40.867615%, 82.041931%)" offset="0.777344"/><stop stop-opacity="1" stop-color="rgb(85.079956%, 40.852356%, 81.951904%)" offset="0.78125"/><stop stop-opacity="1" stop-color="rgb(85.346985%, 40.837097%, 81.861877%)" offset="0.785156"/><stop stop-opacity="1" stop-color="rgb(85.614014%, 40.821838%, 81.771851%)" offset="0.789062"/><stop stop-opacity="1" stop-color="rgb(85.879517%, 40.80658%, 81.681824%)" offset="0.792969"/><stop stop-opacity="1" stop-color="rgb(86.146545%, 40.791321%, 81.591797%)" offset="0.796875"/><stop stop-opacity="1" stop-color="rgb(86.412048%, 40.776062%, 81.500244%)" offset="0.800781"/><stop stop-opacity="1" stop-color="rgb(86.679077%, 40.760803%, 81.410217%)" offset="0.804688"/><stop stop-opacity="1" stop-color="rgb(86.94458%, 40.745544%, 81.32019%)" offset="0.808594"/><stop stop-opacity="1" stop-color="rgb(87.211609%, 40.730286%, 81.230164%)" offset="0.8125"/><stop stop-opacity="1" stop-color="rgb(87.477112%, 40.715027%, 81.140137%)" offset="0.816406"/><stop stop-opacity="1" stop-color="rgb(87.744141%, 40.699768%, 81.05011%)" offset="0.820313"/><stop stop-opacity="1" stop-color="rgb(88.009644%, 40.684509%, 80.960083%)" offset="0.824219"/><stop stop-opacity="1" stop-color="rgb(88.276672%, 40.66925%, 80.870056%)" offset="0.828125"/><stop stop-opacity="1" stop-color="rgb(88.543701%, 40.653992%, 80.778503%)" offset="0.832031"/><stop stop-opacity="1" stop-color="rgb(88.81073%, 40.638733%, 80.688477%)" offset="0.835938"/><stop stop-opacity="1" stop-color="rgb(89.076233%, 40.623474%, 80.59845%)" offset="0.839844"/><stop stop-opacity="1" stop-color="rgb(89.343262%, 40.608215%, 80.508423%)" offset="0.84375"/><stop stop-opacity="1" stop-color="rgb(89.608765%, 40.592957%, 80.418396%)" offset="0.847656"/><stop stop-opacity="1" stop-color="rgb(89.875793%, 40.577698%, 80.328369%)" offset="0.851562"/><stop stop-opacity="1" stop-color="rgb(90.141296%, 40.562439%, 80.238342%)" offset="0.855469"/><stop stop-opacity="1" stop-color="rgb(90.408325%, 40.54718%, 80.148315%)" offset="0.859375"/><stop stop-opacity="1" stop-color="rgb(90.673828%, 40.531921%, 80.056763%)" offset="0.863281"/><stop stop-opacity="1" stop-color="rgb(90.940857%, 40.516663%, 79.966736%)" offset="0.867188"/><stop stop-opacity="1" stop-color="rgb(91.207886%, 40.501404%, 79.876709%)" offset="0.871094"/><stop stop-opacity="1" stop-color="rgb(91.474915%, 40.486145%, 79.786682%)" offset="0.875"/><stop stop-opacity="1" stop-color="rgb(91.740417%, 40.470886%, 79.696655%)" offset="0.878906"/><stop stop-opacity="1" stop-color="rgb(92.007446%, 40.455627%, 79.606628%)" offset="0.882812"/><stop stop-opacity="1" stop-color="rgb(92.272949%, 40.440369%, 79.515076%)" offset="0.886719"/><stop stop-opacity="1" stop-color="rgb(92.539978%, 40.42511%, 79.425049%)" offset="0.890625"/><stop stop-opacity="1" stop-color="rgb(92.805481%, 40.409851%, 79.335022%)" offset="0.894531"/><stop stop-opacity="1" stop-color="rgb(93.07251%, 40.394592%, 79.244995%)" offset="0.898438"/><stop stop-opacity="1" stop-color="rgb(93.338013%, 40.379333%, 79.154968%)" offset="0.902344"/><stop stop-opacity="1" stop-color="rgb(93.605042%, 40.365601%, 79.064941%)" offset="0.90625"/><stop stop-opacity="1" stop-color="rgb(93.870544%, 40.350342%, 78.974915%)" offset="0.910156"/><stop stop-opacity="1" stop-color="rgb(94.137573%, 40.335083%, 78.884888%)" offset="0.914062"/><stop stop-opacity="1" stop-color="rgb(94.404602%, 40.319824%, 78.793335%)" offset="0.917969"/><stop stop-opacity="1" stop-color="rgb(94.671631%, 40.304565%, 78.703308%)" offset="0.921875"/><stop stop-opacity="1" stop-color="rgb(94.937134%, 40.289307%, 78.613281%)" offset="0.925781"/><stop stop-opacity="1" stop-color="rgb(95.204163%, 40.274048%, 78.523254%)" offset="0.929688"/><stop stop-opacity="1" stop-color="rgb(95.469666%, 40.258789%, 78.433228%)" offset="0.933594"/><stop stop-opacity="1" stop-color="rgb(95.736694%, 40.24353%, 78.343201%)" offset="0.9375"/><stop stop-opacity="1" stop-color="rgb(96.002197%, 40.228271%, 78.253174%)" offset="0.941406"/><stop stop-opacity="1" stop-color="rgb(96.269226%, 40.213013%, 78.163147%)" offset="0.945312"/><stop stop-opacity="1" stop-color="rgb(96.534729%, 40.197754%, 78.071594%)" offset="0.949219"/><stop stop-opacity="1" stop-color="rgb(96.801758%, 40.182495%, 77.981567%)" offset="0.953125"/><stop stop-opacity="1" stop-color="rgb(97.068787%, 40.167236%, 77.891541%)" offset="0.957031"/><stop stop-opacity="1" stop-color="rgb(97.335815%, 40.151978%, 77.801514%)" offset="0.960938"/><stop stop-opacity="1" stop-color="rgb(97.601318%, 40.136719%, 77.711487%)" offset="0.964844"/><stop stop-opacity="1" stop-color="rgb(97.868347%, 40.12146%, 77.62146%)" offset="0.96875"/><stop stop-opacity="1" stop-color="rgb(98.13385%, 40.106201%, 77.531433%)" offset="0.972656"/><stop stop-opacity="1" stop-color="rgb(98.400879%, 40.090942%, 77.441406%)" offset="0.976562"/><stop stop-opacity="1" stop-color="rgb(98.666382%, 40.075684%, 77.349854%)" offset="0.980469"/><stop stop-opacity="1" stop-color="rgb(98.933411%, 40.060425%, 77.259827%)" offset="0.984375"/><stop stop-opacity="1" stop-color="rgb(99.198914%, 40.045166%, 77.1698%)" offset="0.988281"/><stop stop-opacity="1" stop-color="rgb(99.465942%, 40.029907%, 77.079773%)" offset="0.992188"/><stop stop-opacity="1" stop-color="rgb(99.731445%, 40.014648%, 76.989746%)" offset="0.996094"/><stop stop-opacity="1" stop-color="rgb(99.998474%, 39.99939%, 76.899719%)" offset="1"/></linearGradient><clipPath id="899eb688b9"><path d="M 19.207031 80.421875 L 354 80.421875 L 354 294.921875 L 19.207031 294.921875 Z M 19.207031 80.421875 " clip-rule="nonzero"/></clipPath><clipPath id="4f234deaa0"><path d="M 261.214844 170.015625 L 265.511719 170.015625 L 265.511719 173.621094 L 261.214844 173.621094 Z M 261.214844 170.015625 " clip-rule="nonzero"/></clipPath><clipPath id="db52f1337f"><path d="M 265.5 171.300781 C 263.550781 174.300781 261.75 173.773438 261.375 173.101562 C 261 172.5 261.375 170.625 261.898438 170.175781 C 262.5 169.726562 264.898438 170.398438 264.898438 170.398438 " clip-rule="nonzero"/></clipPath><clipPath id="5f61a4637f"><path d="M 208.335938 99.433594 L 279.316406 99.433594 L 279.316406 210.273438 L 208.335938 210.273438 Z M 208.335938 99.433594 " clip-rule="nonzero"/></clipPath><clipPath id="5534abc793"><path d="M 209.550781 179.699219 C 217.949219 160.726562 232.125 144.824219 241.273438 144 C 248.925781 143.324219 263.925781 152.773438 263.851562 157.199219 C 263.773438 161.851562 247.050781 171.375 238.875 171.074219 C 230.398438 170.699219 215.625 161.398438 213.75 154.425781 C 212.101562 147.898438 227.175781 135.976562 225.898438 131.101562 C 225 127.875 217.574219 127.726562 216.449219 125.101562 C 215.398438 122.851562 216.898438 119.476562 217.800781 116.925781 C 218.625 114.300781 220.050781 111.75 221.699219 109.574219 C 223.351562 107.398438 225.449219 105.375 227.699219 103.875 C 229.949219 102.375 232.574219 101.101562 235.199219 100.425781 C 237.824219 99.675781 240.75 99.375 243.449219 99.523438 C 246.226562 99.675781 249.074219 100.273438 251.550781 101.324219 C 254.101562 102.300781 256.574219 103.800781 258.675781 105.601562 C 260.773438 107.324219 262.648438 109.574219 264.074219 111.898438 C 265.425781 114.226562 266.550781 116.925781 267.148438 119.625 C 267.675781 122.324219 267.824219 125.175781 267.523438 127.875 C 267.226562 130.648438 266.476562 133.425781 265.351562 135.898438 C 264.148438 138.375 262.574219 140.773438 260.699219 142.726562 C 258.824219 144.75 256.5 146.476562 254.023438 147.75 C 251.625 149.023438 248.925781 150 246.226562 150.449219 C 243.523438 150.824219 240.601562 150.824219 237.898438 150.375 C 235.199219 150 232.425781 149.023438 230.023438 147.75 C 227.625 146.476562 225.300781 144.675781 223.425781 142.726562 C 221.550781 140.773438 219.898438 138.300781 218.773438 135.824219 C 217.648438 133.351562 216.898438 130.574219 216.601562 127.875 C 216.300781 125.175781 216.449219 122.25 217.050781 119.550781 C 217.648438 116.925781 218.699219 114.226562 220.125 111.898438 C 221.550781 109.574219 223.425781 107.324219 225.523438 105.523438 C 227.550781 103.800781 230.101562 102.300781 232.574219 101.25 C 235.125 100.273438 237.976562 99.675781 240.675781 99.523438 C 243.449219 99.375 246.300781 99.675781 248.925781 100.425781 C 251.550781 101.175781 254.25 102.375 256.5 103.875 C 258.75 105.449219 260.851562 107.476562 262.5 109.648438 C 264.148438 111.824219 265.5 114.375 266.398438 116.925781 C 267.226562 119.550781 268.199219 123 267.675781 125.101562 C 267.375 126.675781 265.949219 126.898438 265.125 128.773438 C 263.101562 133.574219 263.851562 154.875 260.101562 155.773438 C 256.125 156.75 239.398438 132.375 240.824219 130.574219 C 242.101562 129 255.976562 135.375 261.75 140.101562 C 267.523438 144.898438 273 151.726562 275.550781 159.074219 C 278.398438 167.023438 281.023438 179.25 276.898438 186.449219 C 272.175781 194.773438 253.125 205.050781 244.351562 203.550781 C 237.074219 202.273438 225.449219 188.175781 226.875 184.5 C 228.523438 180.601562 254.925781 178.574219 257.773438 182.398438 C 260.023438 185.398438 253.574219 195.523438 251.476562 199.199219 C 250.273438 201.300781 249.300781 202.273438 247.949219 203.550781 C 246.601562 204.898438 245.101562 206.023438 243.523438 207 C 241.875 207.898438 240.148438 208.726562 238.351562 209.25 C 236.550781 209.773438 234.675781 210.074219 232.800781 210.148438 C 230.925781 210.300781 229.050781 210.148438 227.175781 209.773438 C 225.375 209.398438 223.574219 208.800781 221.851562 208.050781 C 220.199219 207.226562 218.550781 206.25 217.125 205.050781 C 215.625 203.925781 214.273438 202.5 213.148438 201.074219 C 212.023438 199.574219 211.050781 197.925781 210.300781 196.199219 C 209.550781 194.550781 209.023438 192.675781 208.726562 190.800781 C 208.425781 189 208.351562 187.050781 208.425781 185.25 C 208.574219 183.375 209.550781 179.699219 209.550781 179.699219 " clip-rule="nonzero"/></clipPath><clipPath id="6039d4480b"><path d="M 144 93 L 345 93 L 345 283 L 144 283 Z M 144 93 " clip-rule="nonzero"/></clipPath><clipPath id="d97a9a3d39"><path d="M 198.300781 183.226562 C 210.449219 152.023438 218.023438 151.648438 222.824219 153.074219 C 227.773438 154.5 231.824219 158.925781 235.800781 164.101562 C 241.5 171.601562 251.625 195.226562 250.800781 195.75 C 250.199219 196.125 241.648438 187.726562 241.273438 183.300781 C 240.824219 178.800781 249.226562 173.25 248.773438 168.824219 C 248.398438 164.476562 241.875 161.773438 239.550781 156.976562 C 236.773438 151.125 234.523438 141.074219 234.601562 135.675781 C 234.675781 132.300781 235.726562 129.523438 236.699219 127.425781 C 237.375 125.925781 237.976562 125.101562 239.175781 123.898438 C 240.824219 122.324219 244.125 120.074219 246.226562 119.175781 C 247.726562 118.5 249 118.351562 250.351562 118.199219 C 251.773438 118.050781 253.050781 117.898438 254.625 118.199219 C 256.949219 118.648438 260.324219 119.699219 262.574219 121.273438 C 264.824219 122.851562 267 125.699219 268.125 127.726562 C 269.023438 129.074219 269.175781 129.898438 269.625 131.699219 C 270.601562 135.449219 270.675781 143.398438 272.175781 148.875 C 273.675781 154.351562 279.074219 159.601562 278.550781 164.476562 C 278.023438 169.425781 269.25 173.851562 269.023438 178.574219 C 268.800781 183.074219 277.125 191.625 276.375 192.226562 C 275.699219 192.75 266.398438 186.675781 265.125 182.25 C 263.625 177.074219 267.148438 166.875 271.125 162.226562 C 274.648438 157.949219 280.425781 156.300781 286.648438 154.351562 C 295.125 151.726562 308.699219 149.773438 317.925781 150.148438 C 325.425781 150.523438 333.523438 151.199219 337.949219 154.800781 C 341.851562 158.023438 344.699219 164.476562 344.476562 169.351562 C 344.324219 174.449219 340.726562 180.300781 336 184.875 C 329.625 191.023438 314.550781 195.898438 306.449219 199.648438 C 301.050781 202.125 297 206.476562 292.574219 205.5 C 286.949219 204.226562 275.25 191.101562 276.523438 187.5 C 277.800781 184.050781 294.523438 180.976562 298.949219 183.898438 C 302.925781 186.449219 304.199219 195.449219 303.523438 201.300781 C 302.773438 207.824219 292.949219 215.25 293.25 221.023438 C 293.476562 225.976562 299.324219 228.898438 301.949219 234.226562 C 305.476562 241.273438 310.273438 254.023438 311.25 260.476562 C 311.773438 264.148438 311.324219 267 310.800781 269.324219 C 310.351562 270.976562 309.898438 272.023438 309 273.375 C 307.574219 275.398438 305.175781 278.175781 302.773438 279.675781 C 300.300781 281.175781 297.148438 282.226562 294.300781 282.375 C 291.449219 282.601562 288.226562 282 285.601562 280.875 C 282.976562 279.675781 280.425781 277.648438 278.625 275.398438 C 276.824219 273.226562 274.5 267.675781 274.949219 267.375 C 275.625 266.925781 288.75 280.875 288.148438 281.699219 C 287.25 282.824219 265.875 269.25 258.375 263.925781 C 253.425781 260.324219 249.898438 257.773438 246.675781 253.875 C 243.523438 249.976562 238.050781 241.800781 239.324219 240.300781 C 240.75 238.648438 257.175781 244.125 257.175781 246.300781 C 257.101562 249.074219 234.226562 251.476562 226.574219 255.601562 C 221.175781 258.523438 218.398438 262.125 214.273438 265.949219 C 209.625 270.074219 200.175781 279.449219 200.324219 279.601562 C 200.324219 279.675781 206.925781 273.449219 207.074219 273.601562 C 207.226562 273.75 205.351562 276.074219 204.300781 277.125 C 203.25 278.175781 202.351562 279.074219 200.773438 279.898438 C 198.675781 281.023438 195.226562 282.300781 192.375 282.523438 C 189.449219 282.675781 186.226562 282.074219 183.601562 280.875 C 181.050781 279.675781 178.273438 277.199219 176.699219 275.398438 C 175.5 274.125 174.976562 273.148438 174.375 271.574219 C 173.550781 269.324219 172.648438 266.550781 172.800781 262.875 C 173.101562 256.273438 177.074219 242.773438 180.375 235.574219 C 182.851562 230.324219 185.851562 226.875 189.074219 222.898438 C 192.375 218.699219 197.023438 210.675781 200.101562 211.125 C 203.175781 211.5 203.773438 222.226562 207.601562 225.226562 C 211.351562 228.226562 222.976562 228.300781 222.898438 229.199219 C 222.824219 230.175781 210.226562 232.351562 204.898438 230.699219 C 199.648438 229.050781 194.625 223.949219 191.175781 219.601562 C 188.023438 215.476562 188.101562 209.625 184.648438 205.574219 C 180.824219 201 173.925781 197.476562 168.601562 194.25 C 163.800781 191.398438 158.175781 189.601562 154.425781 187.125 C 151.648438 185.25 149.324219 183.675781 147.675781 181.351562 C 146.023438 179.023438 144.824219 175.949219 144.449219 173.101562 C 144 170.25 144.375 166.949219 145.351562 164.25 C 146.324219 161.550781 148.574219 158.625 150.300781 156.898438 C 151.5 155.699219 152.324219 155.023438 153.898438 154.273438 C 156.074219 153.300781 159.601562 152.101562 162.449219 152.023438 C 165.375 152.023438 167.851562 153.898438 171.148438 154.050781 C 175.5 154.273438 180.449219 152.023438 186.601562 151.949219 C 195.523438 151.726562 213.148438 159.300781 219.75 155.023438 C 225.148438 151.648438 226.726562 140.851562 227.023438 134.398438 C 227.25 128.851562 223.800781 122.851562 223.199219 118.726562 C 222.824219 116.101562 222.675781 114.300781 222.824219 112.199219 C 222.898438 110.175781 223.125 108.148438 223.800781 106.273438 C 224.398438 104.398438 225.375 102.601562 226.574219 101.023438 C 227.773438 99.449219 229.273438 98.023438 230.925781 96.898438 C 232.574219 95.773438 234.449219 94.875 236.398438 94.351562 C 238.273438 93.824219 240.375 93.601562 242.324219 93.75 C 244.273438 93.824219 246.375 94.273438 248.175781 95.023438 C 250.050781 95.773438 251.851562 96.824219 253.351562 98.101562 C 254.851562 99.375 256.199219 100.949219 257.175781 102.675781 C 258.226562 104.324219 258.976562 106.351562 259.425781 108.226562 C 259.800781 110.175781 259.949219 112.273438 259.726562 114.226562 C 259.5 116.175781 258.976562 118.199219 258.148438 120 C 257.324219 121.800781 256.125 123.523438 254.773438 124.949219 C 253.425781 126.375 251.773438 127.648438 249.976562 128.550781 C 248.25 129.523438 246.300781 130.199219 244.351562 130.5 C 242.398438 130.800781 240.300781 130.800781 238.351562 130.5 C 236.398438 130.199219 234.375 129.523438 232.648438 128.550781 C 230.925781 127.648438 229.273438 126.375 227.925781 124.949219 C 226.5 123.523438 225.375 121.800781 224.550781 120 C 223.726562 118.199219 223.125 116.175781 222.898438 114.226562 C 222.75 112.273438 222.824219 110.175781 223.273438 108.226562 C 223.648438 106.273438 224.476562 104.324219 225.449219 102.675781 C 226.5 100.949219 227.851562 99.375 229.351562 98.101562 C 230.851562 96.824219 232.648438 95.773438 234.449219 95.023438 C 236.324219 94.273438 238.351562 93.824219 240.300781 93.75 C 242.324219 93.601562 244.425781 93.824219 246.300781 94.351562 C 248.175781 94.875 250.125 95.773438 251.699219 96.898438 C 253.351562 98.023438 254.851562 99.449219 256.050781 101.023438 C 257.25 102.601562 258.226562 104.476562 258.898438 106.273438 C 259.5 108.148438 260.324219 112.050781 259.875 112.199219 C 259.273438 112.425781 255.300781 105.074219 254.925781 105.226562 C 254.324219 105.601562 259.648438 115.199219 260.625 121.574219 C 261.976562 130.273438 260.324219 144.300781 259.5 152.851562 C 258.898438 159 258.75 163.425781 256.949219 168.449219 C 255.148438 173.550781 252.675781 179.101562 248.699219 183.148438 C 244.351562 187.648438 237.074219 192 231.148438 193.351562 C 225.976562 194.550781 220.726562 192.75 215.550781 192.074219 C 210.226562 191.476562 205.726562 190.050781 199.574219 189.449219 C 191.101562 188.699219 177.675781 189.601562 169.351562 189 C 163.5 188.550781 157.648438 188.324219 154.425781 187.125 C 152.625 186.449219 151.949219 185.851562 150.675781 184.648438 C 148.949219 182.925781 146.550781 179.625 145.574219 177.375 C 144.824219 175.875 144.523438 174.824219 144.449219 173.101562 C 144.226562 170.699219 144.375 166.949219 145.351562 164.25 C 146.324219 161.550781 148.125 158.851562 150.300781 156.898438 C 152.398438 154.949219 155.773438 153.375 158.023438 152.625 C 159.675781 152.101562 160.800781 151.949219 162.449219 152.023438 C 164.925781 152.175781 167.550781 152.550781 171.148438 154.050781 C 178.425781 157.050781 194.101562 167.25 201.75 173.324219 C 206.925781 177.375 210.226562 180.523438 213.675781 185.101562 C 217.425781 190.050781 224.324219 200.925781 223.050781 202.273438 C 221.851562 203.476562 208.351562 196.351562 208.648438 195 C 208.949219 193.648438 220.425781 192.300781 225.300781 194.25 C 230.550781 196.273438 236.851562 202.199219 238.574219 207.675781 C 240.449219 213.375 238.5 222.375 235.425781 228.074219 C 232.351562 233.773438 224.476562 236.699219 220.199219 241.800781 C 215.925781 246.824219 211.875 252.675781 209.699219 258.300781 C 207.824219 263.324219 208.5 270.449219 207.074219 273.601562 C 206.324219 275.324219 205.648438 276 204.300781 277.125 C 202.5 278.699219 199.5 280.875 196.726562 281.699219 C 194.023438 282.523438 190.726562 282.75 187.875 282.226562 C 185.101562 281.699219 182.101562 280.351562 179.851562 278.550781 C 177.601562 276.824219 175.574219 274.199219 174.375 271.574219 C 173.175781 268.949219 172.574219 265.726562 172.800781 262.875 C 172.949219 260.023438 173.625 257.476562 175.425781 254.398438 C 178.574219 249.148438 185.925781 241.949219 192.824219 236.25 C 200.773438 229.648438 212.25 221.398438 221.023438 217.800781 C 227.625 215.023438 233.773438 214.800781 239.699219 213.898438 C 244.949219 213.148438 249.898438 211.199219 254.851562 212.550781 C 260.699219 214.273438 267.148438 221.175781 272.023438 225.601562 C 276.074219 229.425781 278.324219 233.925781 282.300781 237.226562 C 286.5 240.675781 292.125 242.25 296.699219 245.851562 C 301.800781 249.824219 309.523438 256.800781 311.25 260.476562 C 312 262.199219 311.699219 263.25 311.550781 264.976562 C 311.25 267.300781 310.425781 270.976562 309 273.375 C 307.5 275.851562 305.175781 278.175781 302.773438 279.675781 C 300.300781 281.175781 297.148438 282.226562 294.300781 282.375 C 291.449219 282.601562 288.226562 282 285.601562 280.875 C 282.976562 279.675781 280.199219 277.199219 278.625 275.398438 C 277.5 274.199219 276.898438 273 276.300781 271.648438 C 275.699219 270.300781 274.800781 267.449219 274.949219 267.375 C 275.175781 267.300781 278.398438 273.898438 278.625 273.75 C 279.226562 273.523438 268.5 249.300781 265.726562 239.476562 C 263.773438 232.425781 262.574219 226.800781 262.199219 220.726562 C 261.898438 215.175781 262.351562 209.773438 263.398438 204.523438 C 264.523438 199.351562 267.226562 189.523438 268.726562 189.601562 C 270.300781 189.675781 270 200.925781 272.851562 205.425781 C 275.699219 210.074219 286.726562 214.800781 286.050781 216.824219 C 285.375 218.699219 274.949219 220.050781 270.300781 217.800781 C 264.300781 214.875 255.523438 202.273438 255.449219 195.601562 C 255.449219 190.199219 261 184.800781 264.976562 180.824219 C 268.800781 177 272.925781 174.976562 278.625 172.050781 C 287.101562 167.625 306 155.550781 311.476562 158.773438 C 315.824219 161.25 310.273438 177 314.324219 180.449219 C 318.226562 183.75 334.648438 178.800781 334.875 179.699219 C 334.949219 180.449219 325.199219 183.226562 320.25 184.574219 C 315.226562 186 310.050781 187.726562 304.949219 188.023438 C 299.851562 188.25 292.648438 189.449219 289.648438 186.148438 C 285.523438 181.800781 285.300781 160.425781 288.300781 158.773438 C 290.699219 157.5 299.699219 163.875 301.726562 168.675781 C 304.125 174.300781 302.398438 187.050781 298.648438 191.699219 C 295.5 195.601562 288.675781 196.425781 283.574219 197.25 C 278.550781 198.074219 273.375 198.148438 268.351562 196.800781 C 262.648438 195.226562 255.675781 191.625 251.25 187.5 C 247.050781 183.601562 244.351562 178.273438 242.023438 173.023438 C 239.625 167.699219 238.574219 161.851562 237.300781 155.851562 C 236.023438 149.398438 234.601562 139.875 234.601562 135.675781 C 234.601562 133.726562 234.675781 132.976562 235.199219 131.398438 C 235.875 129.226562 237.75 125.773438 239.175781 123.898438 C 240.226562 122.625 240.976562 121.949219 242.398438 121.125 C 244.425781 119.925781 247.648438 118.5 250.351562 118.199219 C 253.125 117.898438 256.273438 118.273438 258.824219 119.25 C 261.375 120.300781 263.925781 122.101562 265.726562 124.125 C 267.601562 126.226562 269.550781 131.773438 269.625 131.699219 C 269.699219 131.699219 268.351562 127.726562 268.050781 127.726562 C 267.375 127.875 266.398438 140.476562 268.648438 145.199219 C 270.824219 149.699219 278.25 150.976562 280.875 155.625 C 283.875 161.023438 285.601562 170.773438 284.101562 176.476562 C 282.898438 181.351562 276.601562 183.898438 274.949219 188.476562 C 273.300781 193.050781 275.625 199.050781 274.425781 204 C 273.226562 208.949219 271.125 213.898438 267.824219 218.175781 C 264.074219 222.898438 258 228.976562 252.148438 230.324219 C 246.375 231.75 237.75 229.648438 232.726562 226.574219 C 228.226562 223.800781 225.75 218.25 222.898438 213.601562 C 219.976562 208.875 216.226562 203.625 215.398438 198.375 C 214.726562 193.351562 215.851562 187.800781 218.023438 182.851562 C 220.425781 177.148438 228.449219 165.824219 230.324219 166.574219 C 232.273438 167.25 230.476562 182.550781 229.125 188.175781 C 228.226562 191.925781 226.875 194.851562 225.074219 197.25 C 223.574219 199.351562 221.699219 201 219.601562 202.125 C 217.5 203.175781 214.5 203.699219 212.550781 203.851562 C 211.125 203.925781 210.226562 203.773438 208.875 203.398438 C 207 202.800781 204.226562 201.601562 202.425781 200.023438 C 200.699219 198.449219 199.125 195.824219 198.300781 194.023438 C 197.773438 192.75 197.550781 191.851562 197.476562 190.425781 C 197.324219 188.476562 198.300781 183.226562 198.300781 183.226562 " clip-rule="nonzero"/></clipPath><clipPath id="41e4084084"><path d="M 204.609375 152 L 233.957031 152 L 233.957031 182.164062 L 204.609375 182.164062 Z M 204.609375 152 " clip-rule="nonzero"/></clipPath><clipPath id="9015922e1d"><path d="M 233.925781 162.601562 C 233.925781 172.050781 232.875 174.523438 231.449219 176.324219 C 230.023438 178.199219 227.925781 179.773438 225.75 180.75 C 223.648438 181.726562 221.023438 182.175781 218.699219 182.023438 C 216.375 181.949219 213.824219 181.125 211.875 179.925781 C 209.851562 178.726562 207.976562 176.851562 206.773438 174.824219 C 205.574219 172.875 204.75 170.324219 204.675781 168 C 204.523438 165.675781 204.976562 163.050781 205.949219 160.949219 C 206.925781 158.773438 208.574219 156.675781 210.375 155.25 C 212.175781 153.824219 214.648438 152.773438 216.898438 152.324219 C 219.226562 151.875 221.851562 152.101562 224.101562 152.773438 C 226.273438 153.449219 230.25 156.449219 230.25 156.449219 " clip-rule="nonzero"/></clipPath></defs><g clip-path="url(#c9381e4d10)"><rect x="-37.5" fill="url(#3eec4e7eb5)" width="450" y="-37.499999" height="449.999989"/></g><g clip-path="url(#899eb688b9)"><path fill="#ffffff" d="M 352.628906 160.554688 C 349.488281 150.875 340.875 144.617188 330.699219 144.617188 L 286.664062 144.617188 C 282.78125 144.617188 279.367188 142.136719 278.175781 138.449219 L 264.574219 96.5625 C 261.421875 86.894531 252.808594 80.640625 242.628906 80.640625 C 242.554688 80.640625 242.492188 80.652344 242.433594 80.652344 C 242.417969 80.652344 242.394531 80.652344 242.382812 80.652344 C 221.457031 81.394531 197.863281 81.394531 175.921875 80.652344 C 172 80.515625 168.746094 83.566406 168.625 87.464844 C 168.488281 91.363281 171.539062 94.640625 175.4375 94.761719 C 186.558594 95.136719 198.113281 95.332031 209.53125 95.332031 C 213.441406 95.332031 217.324219 95.308594 221.183594 95.257812 C 221.011719 95.695312 220.847656 96.128906 220.699219 96.574219 L 215.066406 113.902344 L 55.734375 113.902344 C 51.835938 113.902344 48.671875 117.066406 48.671875 120.960938 C 48.671875 124.859375 51.835938 128.023438 55.734375 128.023438 L 210.472656 128.023438 L 207.085938 138.449219 C 205.882812 142.136719 202.46875 144.617188 198.597656 144.617188 L 154.5625 144.617188 C 150.628906 144.617188 146.941406 145.5625 143.703125 147.261719 C 131.589844 147.238281 119.550781 147.210938 107.722656 147.164062 C 107.710938 147.164062 107.699219 147.164062 107.683594 147.164062 C 103.800781 147.164062 100.636719 150.300781 100.625 154.199219 C 100.609375 158.097656 103.75 161.273438 107.660156 161.296875 C 115.816406 161.335938 124.082031 161.359375 132.394531 161.371094 C 130.472656 168.085938 131.601562 174.9375 135.300781 180.421875 L 36.125 180.421875 C 32.226562 180.421875 29.0625 183.589844 29.0625 187.496094 C 29.0625 191.394531 32.226562 194.558594 36.125 194.558594 L 152.316406 194.558594 L 176.628906 212.222656 C 177.210938 212.644531 177.722656 213.152344 178.167969 213.683594 L 157.03125 213.683594 C 153.132812 213.683594 149.96875 216.851562 149.96875 220.746094 C 149.96875 224.644531 153.132812 227.808594 157.03125 227.808594 L 178.042969 227.808594 L 171.960938 246.523438 C 148.519531 246.277344 125.46875 246.414062 101.046875 246.945312 C 97.148438 247.035156 94.046875 250.261719 94.132812 254.171875 C 94.21875 258.015625 97.359375 261.082031 101.195312 261.082031 C 101.242188 261.082031 101.304688 261.082031 101.355469 261.082031 C 124.082031 260.585938 145.601562 260.4375 167.382812 260.625 L 166.253906 264.085938 C 164.515625 269.449219 164.75 274.933594 166.699219 279.785156 C 131.464844 279.226562 96.378906 279.363281 60.089844 280.207031 C 56.191406 280.296875 53.101562 283.535156 53.1875 287.429688 C 53.277344 291.328125 56.527344 294.480469 60.410156 294.332031 C 103.726562 293.3125 145.304688 293.3125 187.488281 294.320312 C 187.710938 294.320312 187.949219 294.332031 188.171875 294.332031 C 188.234375 294.332031 188.28125 294.332031 188.34375 294.332031 C 188.445312 294.332031 188.53125 294.308594 188.628906 294.308594 C 193.199219 294.21875 197.738281 292.753906 201.722656 289.863281 L 237.355469 263.976562 C 240.496094 261.691406 244.714844 261.691406 247.855469 263.976562 L 283.488281 289.863281 C 287.609375 292.855469 292.324219 294.355469 297.039062 294.355469 C 301.757812 294.355469 306.472656 292.867188 310.59375 289.863281 C 318.820312 283.882812 322.109375 273.765625 318.96875 264.085938 L 305.355469 222.199219 C 304.152344 218.511719 305.453125 214.492188 308.59375 212.222656 L 344.226562 186.332031 C 352.492188 180.363281 355.78125 170.234375 352.628906 160.554688 Z M 335.949219 174.914062 L 300.328125 200.800781 C 292.226562 206.699219 288.847656 217.046875 291.953125 226.582031 L 305.566406 268.46875 C 307.429688 274.1875 303.554688 277.550781 302.328125 278.457031 C 301.097656 279.351562 296.691406 281.996094 291.828125 278.457031 L 256.183594 252.554688 C 248.078125 246.660156 237.183594 246.660156 229.078125 252.554688 L 193.445312 278.445312 C 191.695312 279.722656 190.007812 280.183594 188.507812 280.21875 C 188.21875 280.207031 187.933594 280.207031 187.648438 280.207031 C 185.390625 280.035156 183.652344 278.953125 182.945312 278.445312 C 181.71875 277.550781 177.84375 274.1875 179.707031 268.453125 L 182.1875 260.796875 L 186.757812 246.734375 L 192.898438 227.808594 L 193.308594 226.554688 C 194.699219 222.273438 194.773438 217.816406 193.707031 213.671875 C 192.402344 208.609375 189.386719 204.015625 184.929688 200.777344 L 176.34375 194.546875 L 156.90625 180.421875 L 149.3125 174.902344 C 144.445312 171.363281 145.601562 166.363281 146.074219 164.921875 C 146.296875 164.214844 146.902344 162.738281 148.144531 161.398438 C 149.449219 159.996094 151.472656 158.753906 154.5625 158.753906 L 198.597656 158.753906 C 206.984375 158.753906 214.519531 154.25 218.578125 147.1875 C 219.359375 145.820312 220.03125 144.371094 220.527344 142.820312 L 225.328125 128.023438 L 229.921875 113.902344 L 234.128906 100.945312 C 235.902344 95.496094 240.570312 94.835938 242.34375 94.789062 C 242.457031 94.789062 242.566406 94.789062 242.667969 94.773438 C 244.230469 94.789062 249.269531 95.257812 251.121094 100.945312 L 264.734375 142.820312 C 267.835938 152.351562 276.648438 158.753906 286.664062 158.753906 L 330.699219 158.753906 C 336.71875 158.753906 338.714844 163.46875 339.1875 164.921875 C 339.660156 166.375 340.8125 171.375 335.949219 174.914062 Z M 38.867188 154.238281 C 38.867188 150.339844 42.03125 147.175781 45.929688 147.175781 L 84.652344 147.175781 C 88.546875 147.175781 91.710938 150.339844 91.710938 154.238281 C 91.710938 158.132812 88.546875 161.296875 84.652344 161.296875 L 45.929688 161.296875 C 42.03125 161.296875 38.867188 158.132812 38.867188 154.238281 Z M 26.40625 227.820312 C 26.382812 227.820312 26.34375 227.820312 26.320312 227.820312 C 22.460938 227.820312 19.304688 224.71875 19.257812 220.847656 C 19.207031 216.949219 22.335938 213.746094 26.230469 213.699219 C 61.058594 213.277344 99.222656 213.277344 133.675781 213.699219 C 137.570312 213.746094 140.699219 216.949219 140.648438 220.847656 C 140.597656 224.742188 137.410156 227.796875 133.5 227.820312 C 99.160156 227.398438 61.132812 227.398438 26.40625 227.820312 Z M 26.40625 227.820312 " fill-opacity="1" fill-rule="nonzero"/></g><g clip-path="url(#4f234deaa0)"><g clip-path="url(#db52f1337f)"><path fill="#ffffff" d="M 258.375 167.175781 L 268.507812 167.175781 L 268.507812 177 L 258.375 177 Z M 258.375 167.175781 " fill-opacity="1" fill-rule="nonzero"/></g></g><g clip-path="url(#5f61a4637f)"><g clip-path="url(#5534abc793)"><path fill="#ffffff" d="M 205.425781 96.523438 L 279.898438 96.523438 L 279.898438 213.183594 L 205.425781 213.183594 Z M 205.425781 96.523438 " fill-opacity="1" fill-rule="nonzero"/></g></g><g clip-path="url(#6039d4480b)"><g clip-path="url(#d97a9a3d39)"><path fill="#ffffff" d="M 141.449219 90.75 L 347.460938 90.75 L 347.460938 285.523438 L 141.449219 285.523438 Z M 141.449219 90.75 " fill-opacity="1" fill-rule="nonzero"/></g></g><g clip-path="url(#41e4084084)"><g clip-path="url(#9015922e1d)"><path fill="#ffffff" d="M 201.675781 149.324219 L 237.449219 149.324219 L 237.449219 185.101562 L 201.675781 185.101562 Z M 201.675781 149.324219 " fill-opacity="1" fill-rule="nonzero"/></g></g></svg>